# AST/ASF file generated using VICON BodyLanguage
# -----------------------------------------------
:version 1.10
:name VICON
:units
  mass 1.0
  length 0.45
  angle deg
:documentation
   .ast/.asf automatically generated from VICON data using
   VICON BodyBuilder and BodyLanguage model FoxedUp or BRILLIANT.MOD
:root
   order TX TY TZ RX RY RZ
   axis XYZ
   position 0 0 0  
   orientation 0 0 0 
:bonedata
  begin
     id 1 
     name lhipjoint
     direction 0.700308 -0.549349 0.455834 
     length 2.59063 
     axis 0 0 0  XYZ
  end
  begin
     id 2 
     name lfemur
     direction 0.34202 -0.939693 0  
     length 6.31066  
     axis 0 0 20  XYZ
    dof rx ry rz
    limits (-160.0 20.0)
           (-70.0 70.0)
           (-60.0 70.0)
  end
  begin
     id 3 
     name ltibia
     direction 0.34202 -0.939693 0   
     length 7.36093   
     axis 0 0 20   XYZ
    dof rx
    limits (-10.0 170.0)
  end
  begin
     id 4 
     name lfoot
     direction 0.0905332 -0.248738 0.96433   
     length 2.0233   
     axis -90 7.62852e-016 20   XYZ
    dof rx rz
    limits (-45.0 90.0)
           (-70.0 20.0)
  end
  begin
     id 5 
     name ltoes
     direction 1.53573e-011 -4.21855e-011 1   
     length 1.01524   
     axis -90 7.62852e-016 20   XYZ
    dof rx
    limits (-90.0 20.0)
  end
  begin
     id 6 
     name rhipjoint
     direction -0.61416 -0.607328 0.503944   
     length 2.34332  
     axis 0 0 0  XYZ 
  end
  begin
     id 7 
     name rfemur
     direction -0.34202 -0.939693 0   
     length 6.58548   
     axis 0 0 -20   XYZ
    dof rx ry rz
    limits (-160.0 20.0)
           (-70.0 70.0)
           (-70.0 60.0)
  end
  begin
     id 8 
     name rtibia
     direction -0.34202 -0.939693 0   
     length 7.20707   
     axis 0 0 -20   XYZ
    dof rx
    limits (-10.0 170.0)
 end
 begin
     id 9 
     name rfoot
     direction -0.136772 -0.375778 0.916561   
     length 1.92184  
     axis -90 -7.62852e-016 -20   XYZ
    dof rx rz
    limits (-45.0 90.0)
           (-20.0 70.0)
  end
  begin
     id 10 
     name rtoes
     direction -1.53535e-011 -4.21828e-011 1   
     length 0.951089   
     axis -90 -7.62852e-016 -20   XYZ
    dof rx
    limits (-90.0 20.0)
  end
  begin
     id 11 
     name lowerback
     direction -0.0444974 0.988086 -0.147332   
     length 1.9609   
     axis 0 0 0   XYZ
    dof rx ry rz
    limits (-20.0 45.0)
           (-30.0 30.0)
           (-30.0 30.0)
  end
  begin
     id 12 
     name upperback
     direction 0.00613146 0.999513 0.0306081   
     length 1.94944   
     axis 0 0 0   XYZ
    dof rx ry rz
    limits (-20.0 45.0)
           (-30.0 30.0)
           (-30.0 30.0)
  end
  begin
     id 13 
     name thorax
     direction 0.0254621 0.994518 0.101418   
     length 2.0119   
     axis 0 0 0   XYZ
    dof rx ry rz
    limits (-20.0 45.0)
           (-30.0 30.0)
           (-30.0 30.0)
  end
  begin
     id 14 
     name lowerneck
     direction 0.0168698 0.977854 0.208608   
     length 1.6375   
     axis 0 0 0   XYZ
    dof rx ry rz
    limits (-20.0 45.0)
           (-30.0 30.0)
           (-30.0 30.0)
  end
  begin
     id 15 
     name upperneck
     direction -0.0283988 0.989338 -0.142843   
     length 1.6851   
     axis 0 0 0   XYZ
    dof rx ry rz
    limits (-20.0 45.0)
           (-30.0 30.0)
           (-30.0 30.0)
  end
  begin
     id 16
     name head
     direction -0.0129422 0.99741 -0.0707489  
     length 1.69029  
     axis 0 0 0   XYZ
    dof rx ry rz
    limits (-20.0 45.0)
           (-30.0 30.0)
           (-30.0 30.0)
  end
  begin
     id 17 
     name lclavicle
     direction 0.820295 0.564628 -0.0911715  
     length 3.16484  
     axis 0 0 0   XYZ
    dof ry rz
    limits (-20.0 10.0)
           (0.0 20.0)
  end
  begin
     id 18 
     name lhumerus
     direction 1 -4.48969e-011 1.00186e-027   
     length 5.17853   
     axis 180 -30 -90   XYZ
    dof rx ry rz
    limits (-60.0 90.0)
           (-90.0 90.0)
           (-90.0 90.0)
  end
  begin
     id 19
     name lradius
     direction 1 -4.48966e-011 -1.52922e-027   
     length 3.40399   
     axis 180 -30 -90   XYZ
    dof rx
    limits (-10.0 170.0)
  end
  begin
     id 20
     name lwrist
     direction 1 -4.48981e-011 -3.80893e-027   
     length 1.70199   
     axis 1.1049e-015 90 90   XYZ
    dof ry
    limits (-180.0 0.0)
 end
  begin
     id 21 
     name lhand
     direction 1 -4.48957e-011 -7.61786e-027   
     length 0.708964   
     axis 4.86085e-015 90 90   XYZ
    dof rx rz
    limits (-90.0 90.0)
           (-45.0 45.0)
  end
  begin
     id 22 
     name lfingers
     direction 1 -4.48929e-011 -1.52357e-026   
     length 0.571585   
     axis 9.7217e-015 90 90   XYZ
    dof rx
    limits (0.0 90.0)
  end
  begin
     id 23
     name lthumb
     direction 0.707107 -6.34905e-011 0.707107   
     length 0.820685   
     axis -90 45 2.85299e-015   XYZ
    dof rx rz
    limits (-45.0 45.0)
           (-45.0 45.0)
  end
  begin
     id 24 
     name rclavicle
     direction -0.858602 0.463947 -0.218075   
     length 3.35137  
     axis 0 0 0   XYZ 
    dof ry rz
    limits (-10.0 20.0)
           (-20.0 0.0)
  end
  begin
     id 25 
     name rhumerus
     direction -1 -4.48969e-011 -1.98511e-027  
     length 5.42351   
     axis 180 30 90   XYZ
    dof rx ry rz
    limits (-90.0 60.0)
           (-90.0 90.0)
           (-90.0 90.0)
  end
  begin
     id 26 
     name rradius
     direction -1 -4.48961e-011 -2.82624e-027   
     length 3.42066   
     axis 180 30 90   XYZ
    dof rx
    limits (-10.0 170.0)
  end
  begin
     id 27 
     name rwrist
     direction -1 -4.48966e-011 -3.80893e-027   
     length 1.71033   
     axis 1.1049e-015 -90 -90   XYZ
    dof ry
    limits (-180.0 0.0)
  end
  begin
     id 28
     name rhand
     direction -1 -4.48964e-011 -7.61786e-027   
     length 0.743608   
     axis 4.86085e-015 -90 -90   XYZ
    dof rx rz
    limits (-90.0 90.0)
           (-45.0 45.0)
  end
  begin
     id 29
     name rfingers
     direction -1 -4.48961e-011 -1.52357e-026   
     length 0.599516   
     axis 9.7217e-015 -90 -90   XYZ
    dof rx
    limits (0.0 90.0)
  end
  begin
     id 30
     name rthumb
     direction -0.707107 -6.34913e-011 0.707107   
     length 0.860789   
     axis -90 -45 -2.85299e-015   XYZ
    dof rx rz
    limits (-45.0 45.0)
           (-45.0 45.0)
  end
:hierarchy
  begin
    root lhipjoint rhipjoint lowerback
    lhipjoint lfemur
    lfemur ltibia
    ltibia lfoot
    lfoot ltoes
    rhipjoint rfemur
    rfemur rtibia
    rtibia rfoot
    rfoot rtoes
    lowerback upperback
    upperback thorax
    thorax lowerneck lclavicle rclavicle
    lowerneck upperneck
    upperneck head
    lclavicle lhumerus
    lhumerus lradius
    lradius lwrist
    lwrist lhand lthumb
    lhand lfingers
    rclavicle rhumerus
    rhumerus rradius
    rradius rwrist
    rwrist rhand rthumb
    rhand rfingers
  end

#!OML:ASF E:\mmandel\Project 1\Capture day 1\Session 2\Subject.ASF
:FULLY-SPECIFIED
:DEGREES
615
root 5.70782 16.3767 -1.3005 202.253 86.8943 182.31
lowerback 25.1556 1.02653 -1.16367
upperback 7.14039 1.58572 -0.229646
thorax -6.09159 1.00235 -0.0769589
lowerneck -22.7191 2.23526 2.95908
upperneck 25.8945 3.98144 -5.25866
head 12.5547 1.42333 -1.80124
rclavicle -5.96354e-016 -3.43897e-014
rhumerus -17.8369 15.5349 -80.1212
rradius 25.3755
rwrist -370.729
rhand -7.79341 29.0136
rfingers 7.12502
rthumb 18.1076 -0.163487
lclavicle -5.96354e-016 -3.43897e-014
lhumerus -30.051 -13.3877 83.1535
lradius 31.7536
lwrist 26.189
lhand -13.5881 -27.7541
lfingers 7.12502
lthumb 12.5262 1.85047
rfemur -33.2086 -11.192 24.6047
rtibia 39.6256
rfoot -33.0958 -21.6551
rtoes 6.37592
lfemur -40.7183 -0.445189 -7.8546
ltibia 24.4885
lfoot -14.5515 12.2307
ltoes -1.91757
616
root 5.73986 16.3842 -1.35312 207.524 87.0528 187.634
lowerback 24.713 0.946149 -1.27955
upperback 7.06568 1.45145 -0.141809
thorax -5.95657 0.931517 0.133706
lowerneck -23.2815 2.34163 2.54157
upperneck 26.3718 4.18913 -4.86629
head 12.8504 1.51158 -1.54613
rclavicle 2.09718e-014 -2.28105e-014
rhumerus -17.588 15.7152 -80.0594
rradius 25.2945
rwrist -370.976
rhand -7.66465 28.8425
rfingers 7.12502
rthumb 18.2315 -0.323094
lclavicle 2.09718e-014 -2.28105e-014
lhumerus -30.3903 -12.6074 83.4251
lradius 31.6947
lwrist 26.2521
lhand -13.64 -27.7133
lfingers 7.12502
lthumb 12.4762 1.89426
rfemur -32.7315 -10.8931 24.5484
rtibia 39.0841
rfoot -32.9697 -21.7088
rtoes 6.35236
lfemur -40.266 -1.2217 -7.29779
ltibia 23.9171
lfoot -14.6855 12.8827
ltoes -1.35945
617
root 5.77154 16.3891 -1.40341 211.656 87.1525 191.862
lowerback 24.3343 0.97601 -1.27688
upperback 6.91321 1.46896 -0.210582
thorax -5.93297 0.932454 0.0586345
lowerneck -23.0842 2.30723 2.69954
upperneck 26.2508 4.03659 -4.75064
head 12.7541 1.48055 -1.555
rclavicle 9.44227e-016 1.74931e-014
rhumerus -17.7272 15.0841 -80.1987
rradius 25.1066
rwrist -370.849
rhand -8.31785 29.5117
rfingers 7.12502
rthumb 17.603 0.288587
lclavicle 9.44227e-016 1.74931e-014
lhumerus -30.8698 -12.6506 83.7135
lradius 31.6455
lwrist 26.3335
lhand -13.8413 -27.7593
lfingers 7.12502
lthumb 12.2821 1.85997
rfemur -32.2157 -10.6087 24.4385
rtibia 38.6036
rfoot -32.8998 -21.8
rtoes 6.39619
lfemur -39.7836 -1.70427 -6.99256
ltibia 23.4424
lfoot -14.6712 13.155
ltoes -0.0883634
618
root 5.80377 16.3942 -1.45272 216.347 87.1695 196.616
lowerback 24.1157 0.977882 -1.3034
upperback 6.64291 1.43995 -0.192222
thorax -6.12058 0.908684 0.103047
lowerneck -22.7476 2.2365 2.73301
upperneck 26.0566 3.93247 -4.79434
head 12.6052 1.44001 -1.59505
rclavicle -1.59276e-014 5.42247e-014
rhumerus -18.0117 14.588 -80.2386
rradius 25.1078
rwrist -370.745
rhand -8.5962 29.6058
rfingers 7.12502
rthumb 17.3351 0.358865
lclavicle -1.59276e-014 5.42247e-014
lhumerus -31.4823 -12.3549 84.0681
lradius 31.6498
lwrist 26.1805
lhand -13.7577 -27.5988
lfingers 7.12502
lthumb 12.3627 2.0157
rfemur -31.755 -10.4218 24.4361
rtibia 38.1596
rfoot -32.7496 -22.046
rtoes 5.58502
lfemur -39.407 -1.80986 -6.85895
ltibia 23.0927
lfoot -14.5495 13.1386
ltoes 0.4815
619
root 5.83973 16.3971 -1.50292 225.174 87.4516 205.487
lowerback 23.8516 1.11505 -1.54867
upperback 6.35484 1.53091 -0.174278
thorax -6.31006 0.943018 0.238588
lowerneck -21.8982 2.10383 2.76501
upperneck 25.292 3.73859 -4.93685
head 12.1279 1.35667 -1.68294
rclavicle -1.06847e-014 -1.71949e-014
rhumerus -18.3561 14.1212 -80.2488
rradius 25.4307
rwrist -370.842
rhand -7.88272 28.6408
rfingers 7.12502
rthumb 18.0217 -0.544286
lclavicle -1.06847e-014 -1.71949e-014
lhumerus -32.1569 -12.0806 84.3872
lradius 31.728
lwrist 26.0784
lhand -13.5266 -27.7126
lfingers 7.12502
lthumb 12.5855 1.88833
rfemur -31.3407 -9.9244 24.3924
rtibia 37.7433
rfoot -32.5902 -22.2709
rtoes 5.05506
lfemur -38.9192 -1.85108 -6.67586
ltibia 22.8163
lfoot -14.6391 13.4013
ltoes 0.948355
620
root 5.87541 16.4024 -1.55337 247.555 87.9307 227.744
lowerback 23.0418 1.48098 -1.91318
upperback 6.21704 1.90087 -0.224588
thorax -6.06369 1.11195 0.306565
lowerneck -21.1729 1.95425 2.81029
upperneck 24.4014 3.43322 -4.85898
head 11.6246 1.24866 -1.70487
rclavicle 1.94809e-014 7.95139e-016
rhumerus -18.4471 13.7392 -80.2945
rradius 25.4774
rwrist -371.141
rhand -7.85641 28.4122
rfingers 7.12502
rthumb 18.047 -0.770545
lclavicle 1.94809e-014 7.95139e-016
lhumerus -32.5185 -12.2611 84.7049
lradius 31.7299
lwrist 26.1862
lhand -13.4758 -27.8286
lfingers 7.12502
lthumb 12.6345 1.76925
rfemur -31.1418 -8.89657 24.3463
rtibia 37.3439
rfoot -32.4664 -22.3337
rtoes 5.30927
lfemur -38.4159 -1.70064 -6.37181
ltibia 22.6438
lfoot -14.7958 13.9119
ltoes 1.83845
621
root 5.91484 16.4056 -1.61297 253.295 87.8078 233.746
lowerback 22.7203 1.43602 -1.92148
upperback 6.2373 1.8488 -0.177673
thorax -5.87829 1.08469 0.385575
lowerneck -21.314 2.00144 2.69779
upperneck 24.2734 3.48875 -4.75112
head 11.6014 1.27293 -1.63544
rclavicle 3.8763e-015 -1.76918e-014
rhumerus -18.338 13.9202 -80.2833
rradius 25.1627
rwrist -371.54
rhand -8.98889 29.4259
rfingers 7.12502
rthumb 16.9571 0.146089
lclavicle 3.8763e-015 -1.76918e-014
lhumerus -32.6613 -12.2306 85.1179
lradius 31.7025
lwrist 26.3035
lhand -13.5595 -27.5223
lfingers 7.12502
lthumb 12.5538 2.08053
rfemur -30.4206 -8.59724 24.2249
rtibia 36.9577
rfoot -32.6149 -22.3989
rtoes 5.32608
lfemur -37.7734 -2.09916 -6.21594
ltibia 22.5471
lfoot -14.7556 14.017
ltoes 2.51679
622
root 5.94735 16.4068 -1.6699 260.085 87.7404 240.656
lowerback 22.4287 1.44885 -2.02253
upperback 6.1255 1.83449 -0.184677
thorax -5.85315 1.07351 0.445387
lowerneck -21.6611 2.08984 2.6921
upperneck 24.6353 3.61653 -4.69343
head 11.8126 1.3299 -1.59433
rclavicle -2.88238e-015 6.95746e-016
rhumerus -18.3374 13.6004 -80.2873
rradius 25.2935
rwrist -372.078
rhand -8.78312 28.7639
rfingers 7.12502
rthumb 17.1552 -0.498724
lclavicle -2.88238e-015 6.95746e-016
lhumerus -32.9935 -12.315 85.4837
lradius 31.8266
lwrist 26.407
lhand -13.6297 -27.3311
lfingers 7.12502
lthumb 12.4861 2.2759
rfemur -29.9437 -8.42914 24.1474
rtibia 36.568
rfoot -32.4224 -22.6058
rtoes 3.99808
lfemur -37.3718 -2.2287 -6.17205
ltibia 22.5315
lfoot -14.5078 14.0445
ltoes 2.77732
623
root 5.98227 16.4098 -1.72968 267.771 87.7224 248.542
lowerback 22.1626 1.46324 -2.25057
upperback 6.05925 1.79822 -0.203118
thorax -5.79302 1.05373 0.571057
lowerneck -22.0968 2.20803 2.74035
upperneck 25.0701 3.79675 -4.72201
head 12.0771 1.402 -1.58553
rclavicle -1.17283e-014 5.1684e-015
rhumerus -18.2823 13.2449 -80.2976
rradius 25.3319
rwrist -372.27
rhand -8.90753 28.5678
rfingers 7.12502
rthumb 17.0354 -0.705263
lclavicle -1.17283e-014 5.1684e-015
lhumerus -33.3561 -12.3645 85.7975
lradius 31.9201
lwrist 26.4939
lhand -13.4729 -27.4119
lfingers 7.12502
lthumb 12.6373 2.1858
rfemur -29.3509 -8.24816 23.9822
rtibia 36.1601
rfoot -32.2184 -22.7657
rtoes 2.84786
lfemur -36.8977 -2.15984 -6.29175
ltibia 22.5251
lfoot -14.2239 13.9494
ltoes 4.25197
624
root 6.0236 16.4164 -1.79381 277.368 87.5705 258.349
lowerback 21.8987 1.50708 -2.41145
upperback 5.96015 1.81519 -0.178018
thorax -5.77057 1.05838 0.690474
lowerneck -22.3096 2.24172 2.6988
upperneck 25.2669 3.85542 -4.67901
head 12.1971 1.42512 -1.5533
rclavicle -1.19271e-015 9.34288e-015
rhumerus -18.3938 12.9565 -80.2436
rradius 25.4588
rwrist -372.383
rhand -9.33297 28.812
rfingers 7.12502
rthumb 16.6259 -0.495873
lclavicle -1.19271e-015 9.34288e-015
lhumerus -33.76 -12.3371 86.161
lradius 31.9294
lwrist 26.4833
lhand -13.2779 -27.6022
lfingers 7.12502
lthumb 12.8253 1.98383
rfemur -28.719 -7.78773 23.8302
rtibia 35.7425
rfoot -32.2297 -22.8785
rtoes 2.7954
lfemur -36.3792 -2.36938 -6.146
ltibia 22.5297
lfoot -14.3895 14.7382
ltoes 4.25388
625
root 6.06678 16.4249 -1.85943 285.855 87.4184 266.988
lowerback 21.633 1.57917 -2.51347
upperback 5.79552 1.8711 -0.234955
thorax -5.81516 1.08092 0.676732
lowerneck -22.0802 2.13497 2.69145
upperneck 25.0483 3.65561 -4.55051
head 12.0535 1.35716 -1.53637
rclavicle -1.19271e-014 -1.66979e-014
rhumerus -18.6515 12.5659 -80.2771
rradius 25.5633
rwrist -372.616
rhand -9.74263 29.0789
rfingers 7.12502
rthumb 16.2315 -0.261596
lclavicle -1.19271e-014 -1.66979e-014
lhumerus -34.1363 -12.5028 86.5044
lradius 31.9209
lwrist 26.5218
lhand -13.234 -27.7009
lfingers 7.12502
lthumb 12.8676 1.88242
rfemur -28.1752 -7.35551 23.6027
rtibia 35.3183
rfoot -32.1348 -23.0199
rtoes 2.53348
lfemur -35.9765 -2.56894 -6.08027
ltibia 22.5434
lfoot -14.1749 15.5934
ltoes 2.26017
